<?xml version="1.0" encoding="utf-8" standalone="no"?>
<!DOCTYPE svg PUBLIC "-//W3C//DTD SVG 1.1//EN"
  "http://www.w3.org/Graphics/SVG/1.1/DTD/svg11.dtd">
<svg xmlns:xlink="http://www.w3.org/1999/xlink" width="230.515091pt" height="229.065716pt" viewBox="0 0 230.515091 229.065716" xmlns="http://www.w3.org/2000/svg" version="1.1">
 <metadata>
  <rdf:RDF xmlns:dc="http://purl.org/dc/elements/1.1/" xmlns:cc="http://creativecommons.org/ns#" xmlns:rdf="http://www.w3.org/1999/02/22-rdf-syntax-ns#">
   <cc:Work>
    <dc:type rdf:resource="http://purl.org/dc/dcmitype/StillImage"/>
    <dc:date>2025-08-02T12:07:37.738297</dc:date>
    <dc:format>image/svg+xml</dc:format>
    <dc:creator>
     <cc:Agent>
      <dc:title>Matplotlib v3.10.5, https://matplotlib.org/</dc:title>
     </cc:Agent>
    </dc:creator>
   </cc:Work>
  </rdf:RDF>
 </metadata>
 <defs>
  <style type="text/css">*{stroke-linejoin: round; stroke-linecap: butt}</style>
 </defs>
 <g id="figure_1">
  <g id="patch_1">
   <path d="M 0 229.065716 
L 230.515091 229.065716 
L 230.515091 0 
L 0 0 
z
" style="fill: #ffffff"/>
  </g>
  <g id="axes_1">
   <g id="patch_2">
    <path d="M 44.738438 193.383529 
L 218.315091 193.383529 
L 218.315091 10.671875 
L 44.738438 10.671875 
z
" style="fill: #ffffff"/>
   </g>
   <g id="matplotlib.axis_1">
    <g id="xtick_1">
     <g id="line2d_1">
      <defs>
       <path id="med73df83ad" d="M 0 0 
L 0 -3.5 
" style="stroke: #000000; stroke-width: 0.8"/>
      </defs>
      <g>
       <use xlink:href="#med73df83ad" x="44.738438" y="193.383529" style="stroke: #000000; stroke-width: 0.8"/>
      </g>
     </g>
     <g id="line2d_2">
      <defs>
       <path id="m9fd6efd7c9" d="M 0 0 
L 0 3.5 
" style="stroke: #000000; stroke-width: 0.8"/>
      </defs>
      <g>
       <use xlink:href="#m9fd6efd7c9" x="44.738438" y="10.671875" style="stroke: #000000; stroke-width: 0.8"/>
      </g>
     </g>
     <g id="text_1">
      <!-- 0 -->
      <g transform="translate(42.238438 203.827279) scale(0.1 -0.1)">
       <defs>
        <path id="TimesNewRomanPSMT-30" d="M 231 2094 
Q 231 2819 450 3342 
Q 669 3866 1031 4122 
Q 1313 4325 1613 4325 
Q 2100 4325 2488 3828 
Q 2972 3213 2972 2159 
Q 2972 1422 2759 906 
Q 2547 391 2217 158 
Q 1888 -75 1581 -75 
Q 975 -75 572 641 
Q 231 1244 231 2094 
z
M 844 2016 
Q 844 1141 1059 588 
Q 1238 122 1591 122 
Q 1759 122 1940 273 
Q 2122 425 2216 781 
Q 2359 1319 2359 2297 
Q 2359 3022 2209 3506 
Q 2097 3866 1919 4016 
Q 1791 4119 1609 4119 
Q 1397 4119 1231 3928 
Q 1006 3669 925 3112 
Q 844 2556 844 2016 
z
" transform="scale(0.015625)"/>
       </defs>
       <use xlink:href="#TimesNewRomanPSMT-30"/>
      </g>
     </g>
    </g>
    <g id="xtick_2">
     <g id="line2d_3">
      <g>
       <use xlink:href="#med73df83ad" x="79.453768" y="193.383529" style="stroke: #000000; stroke-width: 0.8"/>
      </g>
     </g>
     <g id="line2d_4">
      <g>
       <use xlink:href="#m9fd6efd7c9" x="79.453768" y="10.671875" style="stroke: #000000; stroke-width: 0.8"/>
      </g>
     </g>
     <g id="text_2">
      <!-- 2 -->
      <g transform="translate(76.953768 203.827279) scale(0.1 -0.1)">
       <defs>
        <path id="TimesNewRomanPSMT-32" d="M 2934 816 
L 2638 0 
L 138 0 
L 138 116 
Q 1241 1122 1691 1759 
Q 2141 2397 2141 2925 
Q 2141 3328 1894 3587 
Q 1647 3847 1303 3847 
Q 991 3847 742 3664 
Q 494 3481 375 3128 
L 259 3128 
Q 338 3706 661 4015 
Q 984 4325 1469 4325 
Q 1984 4325 2329 3994 
Q 2675 3663 2675 3213 
Q 2675 2891 2525 2569 
Q 2294 2063 1775 1497 
Q 997 647 803 472 
L 1909 472 
Q 2247 472 2383 497 
Q 2519 522 2628 598 
Q 2738 675 2819 816 
L 2934 816 
z
" transform="scale(0.015625)"/>
       </defs>
       <use xlink:href="#TimesNewRomanPSMT-32"/>
      </g>
     </g>
    </g>
    <g id="xtick_3">
     <g id="line2d_5">
      <g>
       <use xlink:href="#med73df83ad" x="114.169099" y="193.383529" style="stroke: #000000; stroke-width: 0.8"/>
      </g>
     </g>
     <g id="line2d_6">
      <g>
       <use xlink:href="#m9fd6efd7c9" x="114.169099" y="10.671875" style="stroke: #000000; stroke-width: 0.8"/>
      </g>
     </g>
     <g id="text_3">
      <!-- 4 -->
      <g transform="translate(111.669099 203.827279) scale(0.1 -0.1)">
       <defs>
        <path id="TimesNewRomanPSMT-34" d="M 2978 1563 
L 2978 1119 
L 2409 1119 
L 2409 0 
L 1894 0 
L 1894 1119 
L 100 1119 
L 100 1519 
L 2066 4325 
L 2409 4325 
L 2409 1563 
L 2978 1563 
z
M 1894 1563 
L 1894 3666 
L 406 1563 
L 1894 1563 
z
" transform="scale(0.015625)"/>
       </defs>
       <use xlink:href="#TimesNewRomanPSMT-34"/>
      </g>
     </g>
    </g>
    <g id="xtick_4">
     <g id="line2d_7">
      <g>
       <use xlink:href="#med73df83ad" x="148.88443" y="193.383529" style="stroke: #000000; stroke-width: 0.8"/>
      </g>
     </g>
     <g id="line2d_8">
      <g>
       <use xlink:href="#m9fd6efd7c9" x="148.88443" y="10.671875" style="stroke: #000000; stroke-width: 0.8"/>
      </g>
     </g>
     <g id="text_4">
      <!-- 6 -->
      <g transform="translate(146.38443 203.827279) scale(0.1 -0.1)">
       <defs>
        <path id="TimesNewRomanPSMT-36" d="M 2869 4325 
L 2869 4209 
Q 2456 4169 2195 4045 
Q 1934 3922 1679 3669 
Q 1425 3416 1258 3105 
Q 1091 2794 978 2366 
Q 1428 2675 1881 2675 
Q 2316 2675 2634 2325 
Q 2953 1975 2953 1425 
Q 2953 894 2631 456 
Q 2244 -75 1606 -75 
Q 1172 -75 869 213 
Q 275 772 275 1663 
Q 275 2231 503 2743 
Q 731 3256 1154 3653 
Q 1578 4050 1965 4187 
Q 2353 4325 2688 4325 
L 2869 4325 
z
M 925 2138 
Q 869 1716 869 1456 
Q 869 1156 980 804 
Q 1091 453 1309 247 
Q 1469 100 1697 100 
Q 1969 100 2183 356 
Q 2397 613 2397 1088 
Q 2397 1622 2184 2012 
Q 1972 2403 1581 2403 
Q 1463 2403 1327 2353 
Q 1191 2303 925 2138 
z
" transform="scale(0.015625)"/>
       </defs>
       <use xlink:href="#TimesNewRomanPSMT-36"/>
      </g>
     </g>
    </g>
    <g id="xtick_5">
     <g id="line2d_9">
      <g>
       <use xlink:href="#med73df83ad" x="183.59976" y="193.383529" style="stroke: #000000; stroke-width: 0.8"/>
      </g>
     </g>
     <g id="line2d_10">
      <g>
       <use xlink:href="#m9fd6efd7c9" x="183.59976" y="10.671875" style="stroke: #000000; stroke-width: 0.8"/>
      </g>
     </g>
     <g id="text_5">
      <!-- 8 -->
      <g transform="translate(181.09976 203.827279) scale(0.1 -0.1)">
       <defs>
        <path id="TimesNewRomanPSMT-38" d="M 1228 2134 
Q 725 2547 579 2797 
Q 434 3047 434 3316 
Q 434 3728 753 4026 
Q 1072 4325 1600 4325 
Q 2113 4325 2425 4047 
Q 2738 3769 2738 3413 
Q 2738 3175 2569 2928 
Q 2400 2681 1866 2347 
Q 2416 1922 2594 1678 
Q 2831 1359 2831 1006 
Q 2831 559 2490 242 
Q 2150 -75 1597 -75 
Q 994 -75 656 303 
Q 388 606 388 966 
Q 388 1247 577 1523 
Q 766 1800 1228 2134 
z
M 1719 2469 
Q 2094 2806 2194 3001 
Q 2294 3197 2294 3444 
Q 2294 3772 2109 3958 
Q 1925 4144 1606 4144 
Q 1288 4144 1088 3959 
Q 888 3775 888 3528 
Q 888 3366 970 3203 
Q 1053 3041 1206 2894 
L 1719 2469 
z
M 1375 2016 
Q 1116 1797 991 1539 
Q 866 1281 866 981 
Q 866 578 1086 336 
Q 1306 94 1647 94 
Q 1984 94 2187 284 
Q 2391 475 2391 747 
Q 2391 972 2272 1150 
Q 2050 1481 1375 2016 
z
" transform="scale(0.015625)"/>
       </defs>
       <use xlink:href="#TimesNewRomanPSMT-38"/>
      </g>
     </g>
    </g>
    <g id="xtick_6">
     <g id="line2d_11">
      <g>
       <use xlink:href="#med73df83ad" x="218.315091" y="193.383529" style="stroke: #000000; stroke-width: 0.8"/>
      </g>
     </g>
     <g id="line2d_12">
      <g>
       <use xlink:href="#m9fd6efd7c9" x="218.315091" y="10.671875" style="stroke: #000000; stroke-width: 0.8"/>
      </g>
     </g>
     <g id="text_6">
      <!-- 10 -->
      <g transform="translate(213.315091 203.827279) scale(0.1 -0.1)">
       <defs>
        <path id="TimesNewRomanPSMT-31" d="M 750 3822 
L 1781 4325 
L 1884 4325 
L 1884 747 
Q 1884 391 1914 303 
Q 1944 216 2037 169 
Q 2131 122 2419 116 
L 2419 0 
L 825 0 
L 825 116 
Q 1125 122 1212 167 
Q 1300 213 1334 289 
Q 1369 366 1369 747 
L 1369 3034 
Q 1369 3497 1338 3628 
Q 1316 3728 1258 3775 
Q 1200 3822 1119 3822 
Q 1003 3822 797 3725 
L 750 3822 
z
" transform="scale(0.015625)"/>
       </defs>
       <use xlink:href="#TimesNewRomanPSMT-31"/>
       <use xlink:href="#TimesNewRomanPSMT-30" transform="translate(50 0)"/>
      </g>
     </g>
    </g>
    <g id="text_7">
     <!-- X Axis Label (unit) -->
     <g transform="translate(84.700514 219.298841) scale(0.12 -0.12)">
      <defs>
       <path id="TimesNewRomanPSMT-58" d="M 2613 2347 
L 3522 991 
Q 3900 428 4083 279 
Q 4266 131 4547 116 
L 4547 0 
L 2728 0 
L 2728 116 
Q 2909 119 2997 153 
Q 3063 181 3105 239 
Q 3147 297 3147 356 
Q 3147 428 3119 500 
Q 3097 553 2947 775 
L 2228 1863 
L 1341 725 
Q 1200 544 1172 483 
Q 1144 422 1144 356 
Q 1144 256 1228 190 
Q 1313 125 1550 116 
L 1550 0 
L 47 0 
L 47 116 
Q 206 131 322 181 
Q 516 263 691 400 
Q 866 538 1091 822 
L 2091 2084 
L 1256 3306 
Q 916 3803 678 3958 
Q 441 4113 131 4122 
L 131 4238 
L 2091 4238 
L 2091 4122 
Q 1841 4113 1748 4041 
Q 1656 3969 1656 3881 
Q 1656 3766 1806 3544 
L 2456 2572 
L 3209 3525 
Q 3341 3694 3370 3756 
Q 3400 3819 3400 3884 
Q 3400 3950 3363 4000 
Q 3316 4066 3244 4092 
Q 3172 4119 2947 4122 
L 2947 4238 
L 4450 4238 
L 4450 4122 
Q 4272 4113 4159 4066 
Q 3991 3994 3850 3872 
Q 3709 3750 3453 3422 
L 2613 2347 
z
" transform="scale(0.015625)"/>
       <path id="TimesNewRomanPSMT-20" transform="scale(0.015625)"/>
       <path id="TimesNewRomanPSMT-41" d="M 2928 1419 
L 1288 1419 
L 1000 750 
Q 894 503 894 381 
Q 894 284 986 211 
Q 1078 138 1384 116 
L 1384 0 
L 50 0 
L 50 116 
Q 316 163 394 238 
Q 553 388 747 847 
L 2238 4334 
L 2347 4334 
L 3822 809 
Q 4000 384 4145 257 
Q 4291 131 4550 116 
L 4550 0 
L 2878 0 
L 2878 116 
Q 3131 128 3220 200 
Q 3309 272 3309 375 
Q 3309 513 3184 809 
L 2928 1419 
z
M 2841 1650 
L 2122 3363 
L 1384 1650 
L 2841 1650 
z
" transform="scale(0.015625)"/>
       <path id="TimesNewRomanPSMT-78" d="M 84 2863 
L 1431 2863 
L 1431 2747 
Q 1303 2747 1251 2703 
Q 1200 2659 1200 2588 
Q 1200 2513 1309 2356 
Q 1344 2306 1413 2200 
L 1616 1875 
L 1850 2200 
Q 2075 2509 2075 2591 
Q 2075 2656 2022 2701 
Q 1969 2747 1850 2747 
L 1850 2863 
L 2819 2863 
L 2819 2747 
Q 2666 2738 2553 2663 
Q 2400 2556 2134 2200 
L 1744 1678 
L 2456 653 
Q 2719 275 2831 198 
Q 2944 122 3122 113 
L 3122 0 
L 1772 0 
L 1772 113 
Q 1913 113 1991 175 
Q 2050 219 2050 291 
Q 2050 363 1850 653 
L 1431 1266 
L 972 653 
Q 759 369 759 316 
Q 759 241 829 180 
Q 900 119 1041 113 
L 1041 0 
L 106 0 
L 106 113 
Q 219 128 303 191 
Q 422 281 703 653 
L 1303 1450 
L 759 2238 
Q 528 2575 401 2661 
Q 275 2747 84 2747 
L 84 2863 
z
" transform="scale(0.015625)"/>
       <path id="TimesNewRomanPSMT-69" d="M 928 4444 
Q 1059 4444 1151 4351 
Q 1244 4259 1244 4128 
Q 1244 3997 1151 3903 
Q 1059 3809 928 3809 
Q 797 3809 703 3903 
Q 609 3997 609 4128 
Q 609 4259 701 4351 
Q 794 4444 928 4444 
z
M 1188 2947 
L 1188 647 
Q 1188 378 1227 289 
Q 1266 200 1342 156 
Q 1419 113 1622 113 
L 1622 0 
L 231 0 
L 231 113 
Q 441 113 512 153 
Q 584 194 626 287 
Q 669 381 669 647 
L 669 1750 
Q 669 2216 641 2353 
Q 619 2453 572 2492 
Q 525 2531 444 2531 
Q 356 2531 231 2484 
L 188 2597 
L 1050 2947 
L 1188 2947 
z
" transform="scale(0.015625)"/>
       <path id="TimesNewRomanPSMT-73" d="M 2050 2947 
L 2050 1972 
L 1947 1972 
Q 1828 2431 1642 2597 
Q 1456 2763 1169 2763 
Q 950 2763 815 2647 
Q 681 2531 681 2391 
Q 681 2216 781 2091 
Q 878 1963 1175 1819 
L 1631 1597 
Q 2266 1288 2266 781 
Q 2266 391 1970 151 
Q 1675 -88 1309 -88 
Q 1047 -88 709 6 
Q 606 38 541 38 
Q 469 38 428 -44 
L 325 -44 
L 325 978 
L 428 978 
Q 516 541 762 319 
Q 1009 97 1316 97 
Q 1531 97 1667 223 
Q 1803 350 1803 528 
Q 1803 744 1651 891 
Q 1500 1038 1047 1263 
Q 594 1488 453 1669 
Q 313 1847 313 2119 
Q 313 2472 555 2709 
Q 797 2947 1181 2947 
Q 1350 2947 1591 2875 
Q 1750 2828 1803 2828 
Q 1853 2828 1881 2850 
Q 1909 2872 1947 2947 
L 2050 2947 
z
" transform="scale(0.015625)"/>
       <path id="TimesNewRomanPSMT-4c" d="M 3669 1172 
L 3772 1150 
L 3409 0 
L 128 0 
L 128 116 
L 288 116 
Q 556 116 672 291 
Q 738 391 738 753 
L 738 3488 
Q 738 3884 650 3984 
Q 528 4122 288 4122 
L 128 4122 
L 128 4238 
L 2047 4238 
L 2047 4122 
Q 1709 4125 1573 4059 
Q 1438 3994 1388 3894 
Q 1338 3794 1338 3416 
L 1338 753 
Q 1338 494 1388 397 
Q 1425 331 1503 300 
Q 1581 269 1991 269 
L 2300 269 
Q 2788 269 2984 341 
Q 3181 413 3343 595 
Q 3506 778 3669 1172 
z
" transform="scale(0.015625)"/>
       <path id="TimesNewRomanPSMT-61" d="M 1822 413 
Q 1381 72 1269 19 
Q 1100 -59 909 -59 
Q 613 -59 420 144 
Q 228 347 228 678 
Q 228 888 322 1041 
Q 450 1253 767 1440 
Q 1084 1628 1822 1897 
L 1822 2009 
Q 1822 2438 1686 2597 
Q 1550 2756 1291 2756 
Q 1094 2756 978 2650 
Q 859 2544 859 2406 
L 866 2225 
Q 866 2081 792 2003 
Q 719 1925 600 1925 
Q 484 1925 411 2006 
Q 338 2088 338 2228 
Q 338 2497 613 2722 
Q 888 2947 1384 2947 
Q 1766 2947 2009 2819 
Q 2194 2722 2281 2516 
Q 2338 2381 2338 1966 
L 2338 994 
Q 2338 584 2353 492 
Q 2369 400 2405 369 
Q 2441 338 2488 338 
Q 2538 338 2575 359 
Q 2641 400 2828 588 
L 2828 413 
Q 2478 -56 2159 -56 
Q 2006 -56 1915 50 
Q 1825 156 1822 413 
z
M 1822 616 
L 1822 1706 
Q 1350 1519 1213 1441 
Q 966 1303 859 1153 
Q 753 1003 753 825 
Q 753 600 887 451 
Q 1022 303 1197 303 
Q 1434 303 1822 616 
z
" transform="scale(0.015625)"/>
       <path id="TimesNewRomanPSMT-62" d="M 984 2369 
Q 1400 2947 1881 2947 
Q 2322 2947 2650 2570 
Q 2978 2194 2978 1541 
Q 2978 778 2472 313 
Q 2038 -88 1503 -88 
Q 1253 -88 995 3 
Q 738 94 469 275 
L 469 3241 
Q 469 3728 445 3840 
Q 422 3953 372 3993 
Q 322 4034 247 4034 
Q 159 4034 28 3984 
L -16 4094 
L 844 4444 
L 984 4444 
L 984 2369 
z
M 984 2169 
L 984 456 
Q 1144 300 1314 220 
Q 1484 141 1663 141 
Q 1947 141 2192 453 
Q 2438 766 2438 1363 
Q 2438 1913 2192 2208 
Q 1947 2503 1634 2503 
Q 1469 2503 1303 2419 
Q 1178 2356 984 2169 
z
" transform="scale(0.015625)"/>
       <path id="TimesNewRomanPSMT-65" d="M 681 1784 
Q 678 1147 991 784 
Q 1303 422 1725 422 
Q 2006 422 2214 576 
Q 2422 731 2563 1106 
L 2659 1044 
Q 2594 616 2278 264 
Q 1963 -88 1488 -88 
Q 972 -88 605 314 
Q 238 716 238 1394 
Q 238 2128 614 2539 
Q 991 2950 1559 2950 
Q 2041 2950 2350 2633 
Q 2659 2316 2659 1784 
L 681 1784 
z
M 681 1966 
L 2006 1966 
Q 1991 2241 1941 2353 
Q 1863 2528 1708 2628 
Q 1553 2728 1384 2728 
Q 1125 2728 920 2526 
Q 716 2325 681 1966 
z
" transform="scale(0.015625)"/>
       <path id="TimesNewRomanPSMT-6c" d="M 1184 4444 
L 1184 647 
Q 1184 378 1223 290 
Q 1263 203 1344 158 
Q 1425 113 1647 113 
L 1647 0 
L 244 0 
L 244 113 
Q 441 113 512 153 
Q 584 194 625 287 
Q 666 381 666 647 
L 666 3247 
Q 666 3731 644 3842 
Q 622 3953 573 3993 
Q 525 4034 450 4034 
Q 369 4034 244 3984 
L 191 4094 
L 1044 4444 
L 1184 4444 
z
" transform="scale(0.015625)"/>
       <path id="TimesNewRomanPSMT-28" d="M 1988 -1253 
L 1988 -1369 
Q 1516 -1131 1200 -813 
Q 750 -359 506 256 
Q 263 872 263 1534 
Q 263 2503 741 3301 
Q 1219 4100 1988 4444 
L 1988 4313 
Q 1603 4100 1356 3731 
Q 1109 3363 987 2797 
Q 866 2231 866 1616 
Q 866 947 969 400 
Q 1050 -31 1165 -292 
Q 1281 -553 1476 -793 
Q 1672 -1034 1988 -1253 
z
" transform="scale(0.015625)"/>
       <path id="TimesNewRomanPSMT-75" d="M 2709 2863 
L 2709 1128 
Q 2709 631 2732 520 
Q 2756 409 2807 365 
Q 2859 322 2928 322 
Q 3025 322 3147 375 
L 3191 266 
L 2334 -88 
L 2194 -88 
L 2194 519 
Q 1825 119 1631 15 
Q 1438 -88 1222 -88 
Q 981 -88 804 51 
Q 628 191 559 409 
Q 491 628 491 1028 
L 491 2306 
Q 491 2509 447 2587 
Q 403 2666 317 2708 
Q 231 2750 6 2747 
L 6 2863 
L 1009 2863 
L 1009 947 
Q 1009 547 1148 422 
Q 1288 297 1484 297 
Q 1619 297 1789 381 
Q 1959 466 2194 703 
L 2194 2325 
Q 2194 2569 2105 2655 
Q 2016 2741 1734 2747 
L 1734 2863 
L 2709 2863 
z
" transform="scale(0.015625)"/>
       <path id="TimesNewRomanPSMT-6e" d="M 1034 2341 
Q 1538 2947 1994 2947 
Q 2228 2947 2397 2830 
Q 2566 2713 2666 2444 
Q 2734 2256 2734 1869 
L 2734 647 
Q 2734 375 2778 278 
Q 2813 200 2889 156 
Q 2966 113 3172 113 
L 3172 0 
L 1756 0 
L 1756 113 
L 1816 113 
Q 2016 113 2095 173 
Q 2175 234 2206 353 
Q 2219 400 2219 647 
L 2219 1819 
Q 2219 2209 2117 2386 
Q 2016 2563 1775 2563 
Q 1403 2563 1034 2156 
L 1034 647 
Q 1034 356 1069 288 
Q 1113 197 1189 155 
Q 1266 113 1500 113 
L 1500 0 
L 84 0 
L 84 113 
L 147 113 
Q 366 113 442 223 
Q 519 334 519 647 
L 519 1709 
Q 519 2225 495 2337 
Q 472 2450 423 2490 
Q 375 2531 294 2531 
Q 206 2531 84 2484 
L 38 2597 
L 900 2947 
L 1034 2947 
L 1034 2341 
z
" transform="scale(0.015625)"/>
       <path id="TimesNewRomanPSMT-74" d="M 1031 3803 
L 1031 2863 
L 1700 2863 
L 1700 2644 
L 1031 2644 
L 1031 788 
Q 1031 509 1111 412 
Q 1191 316 1316 316 
Q 1419 316 1516 380 
Q 1613 444 1666 569 
L 1788 569 
Q 1678 263 1478 108 
Q 1278 -47 1066 -47 
Q 922 -47 784 33 
Q 647 113 581 261 
Q 516 409 516 719 
L 516 2644 
L 63 2644 
L 63 2747 
Q 234 2816 414 2980 
Q 594 3144 734 3369 
Q 806 3488 934 3803 
L 1031 3803 
z
" transform="scale(0.015625)"/>
       <path id="TimesNewRomanPSMT-29" d="M 144 4313 
L 144 4444 
Q 619 4209 934 3891 
Q 1381 3434 1625 2820 
Q 1869 2206 1869 1541 
Q 1869 572 1392 -226 
Q 916 -1025 144 -1369 
L 144 -1253 
Q 528 -1038 776 -670 
Q 1025 -303 1145 264 
Q 1266 831 1266 1447 
Q 1266 2113 1163 2663 
Q 1084 3094 967 3353 
Q 850 3613 656 3853 
Q 463 4094 144 4313 
z
" transform="scale(0.015625)"/>
      </defs>
      <use xlink:href="#TimesNewRomanPSMT-58"/>
      <use xlink:href="#TimesNewRomanPSMT-20" transform="translate(72.216797 0)"/>
      <use xlink:href="#TimesNewRomanPSMT-41" transform="translate(91.716797 0)"/>
      <use xlink:href="#TimesNewRomanPSMT-78" transform="translate(163.933594 0)"/>
      <use xlink:href="#TimesNewRomanPSMT-69" transform="translate(213.933594 0)"/>
      <use xlink:href="#TimesNewRomanPSMT-73" transform="translate(241.716797 0)"/>
      <use xlink:href="#TimesNewRomanPSMT-20" transform="translate(280.632812 0)"/>
      <use xlink:href="#TimesNewRomanPSMT-4c" transform="translate(305.632812 0)"/>
      <use xlink:href="#TimesNewRomanPSMT-61" transform="translate(366.716797 0)"/>
      <use xlink:href="#TimesNewRomanPSMT-62" transform="translate(411.101562 0)"/>
      <use xlink:href="#TimesNewRomanPSMT-65" transform="translate(461.101562 0)"/>
      <use xlink:href="#TimesNewRomanPSMT-6c" transform="translate(505.486328 0)"/>
      <use xlink:href="#TimesNewRomanPSMT-20" transform="translate(533.269531 0)"/>
      <use xlink:href="#TimesNewRomanPSMT-28" transform="translate(558.269531 0)"/>
      <use xlink:href="#TimesNewRomanPSMT-75" transform="translate(591.570312 0)"/>
      <use xlink:href="#TimesNewRomanPSMT-6e" transform="translate(641.570312 0)"/>
      <use xlink:href="#TimesNewRomanPSMT-69" transform="translate(691.570312 0)"/>
      <use xlink:href="#TimesNewRomanPSMT-74" transform="translate(719.353516 0)"/>
      <use xlink:href="#TimesNewRomanPSMT-29" transform="translate(747.136719 0)"/>
     </g>
    </g>
   </g>
   <g id="matplotlib.axis_2">
    <g id="ytick_1">
     <g id="line2d_13">
      <defs>
       <path id="m7d8c778c8e" d="M 0 0 
L 3.5 0 
" style="stroke: #000000; stroke-width: 0.8"/>
      </defs>
      <g>
       <use xlink:href="#m7d8c778c8e" x="44.738438" y="179.328786" style="stroke: #000000; stroke-width: 0.8"/>
      </g>
     </g>
     <g id="line2d_14">
      <defs>
       <path id="mebde15541e" d="M 0 0 
L -3.5 0 
" style="stroke: #000000; stroke-width: 0.8"/>
      </defs>
      <g>
       <use xlink:href="#mebde15541e" x="218.315091" y="179.328786" style="stroke: #000000; stroke-width: 0.8"/>
      </g>
     </g>
     <g id="text_8">
      <!-- −1.0 -->
      <g transform="translate(23.099375 182.800661) scale(0.1 -0.1)">
       <defs>
        <path id="TimesNewRomanPSMT-2212" d="M 3484 2000 
L 116 2000 
L 116 2256 
L 3484 2256 
L 3484 2000 
z
" transform="scale(0.015625)"/>
        <path id="TimesNewRomanPSMT-2e" d="M 800 606 
Q 947 606 1047 504 
Q 1147 403 1147 259 
Q 1147 116 1045 14 
Q 944 -88 800 -88 
Q 656 -88 554 14 
Q 453 116 453 259 
Q 453 406 554 506 
Q 656 606 800 606 
z
" transform="scale(0.015625)"/>
       </defs>
       <use xlink:href="#TimesNewRomanPSMT-2212"/>
       <use xlink:href="#TimesNewRomanPSMT-31" transform="translate(56.396484 0)"/>
       <use xlink:href="#TimesNewRomanPSMT-2e" transform="translate(106.396484 0)"/>
       <use xlink:href="#TimesNewRomanPSMT-30" transform="translate(131.396484 0)"/>
      </g>
     </g>
    </g>
    <g id="ytick_2">
     <g id="line2d_15">
      <g>
       <use xlink:href="#m7d8c778c8e" x="44.738438" y="151.219301" style="stroke: #000000; stroke-width: 0.8"/>
      </g>
     </g>
     <g id="line2d_16">
      <g>
       <use xlink:href="#mebde15541e" x="218.315091" y="151.219301" style="stroke: #000000; stroke-width: 0.8"/>
      </g>
     </g>
     <g id="text_9">
      <!-- −0.5 -->
      <g transform="translate(23.099375 154.691176) scale(0.1 -0.1)">
       <defs>
        <path id="TimesNewRomanPSMT-35" d="M 2778 4238 
L 2534 3706 
L 1259 3706 
L 981 3138 
Q 1809 3016 2294 2522 
Q 2709 2097 2709 1522 
Q 2709 1188 2573 903 
Q 2438 619 2231 419 
Q 2025 219 1772 97 
Q 1413 -75 1034 -75 
Q 653 -75 479 54 
Q 306 184 306 341 
Q 306 428 378 495 
Q 450 563 559 563 
Q 641 563 702 538 
Q 763 513 909 409 
Q 1144 247 1384 247 
Q 1750 247 2026 523 
Q 2303 800 2303 1197 
Q 2303 1581 2056 1914 
Q 1809 2247 1375 2428 
Q 1034 2569 447 2591 
L 1259 4238 
L 2778 4238 
z
" transform="scale(0.015625)"/>
       </defs>
       <use xlink:href="#TimesNewRomanPSMT-2212"/>
       <use xlink:href="#TimesNewRomanPSMT-30" transform="translate(56.396484 0)"/>
       <use xlink:href="#TimesNewRomanPSMT-2e" transform="translate(106.396484 0)"/>
       <use xlink:href="#TimesNewRomanPSMT-35" transform="translate(131.396484 0)"/>
      </g>
     </g>
    </g>
    <g id="ytick_3">
     <g id="line2d_17">
      <g>
       <use xlink:href="#m7d8c778c8e" x="44.738438" y="123.109816" style="stroke: #000000; stroke-width: 0.8"/>
      </g>
     </g>
     <g id="line2d_18">
      <g>
       <use xlink:href="#mebde15541e" x="218.315091" y="123.109816" style="stroke: #000000; stroke-width: 0.8"/>
      </g>
     </g>
     <g id="text_10">
      <!-- 0.0 -->
      <g transform="translate(28.738438 126.581691) scale(0.1 -0.1)">
       <use xlink:href="#TimesNewRomanPSMT-30"/>
       <use xlink:href="#TimesNewRomanPSMT-2e" transform="translate(50 0)"/>
       <use xlink:href="#TimesNewRomanPSMT-30" transform="translate(75 0)"/>
      </g>
     </g>
    </g>
    <g id="ytick_4">
     <g id="line2d_19">
      <g>
       <use xlink:href="#m7d8c778c8e" x="44.738438" y="95.00033" style="stroke: #000000; stroke-width: 0.8"/>
      </g>
     </g>
     <g id="line2d_20">
      <g>
       <use xlink:href="#mebde15541e" x="218.315091" y="95.00033" style="stroke: #000000; stroke-width: 0.8"/>
      </g>
     </g>
     <g id="text_11">
      <!-- 0.5 -->
      <g transform="translate(28.738438 98.472205) scale(0.1 -0.1)">
       <use xlink:href="#TimesNewRomanPSMT-30"/>
       <use xlink:href="#TimesNewRomanPSMT-2e" transform="translate(50 0)"/>
       <use xlink:href="#TimesNewRomanPSMT-35" transform="translate(75 0)"/>
      </g>
     </g>
    </g>
    <g id="ytick_5">
     <g id="line2d_21">
      <g>
       <use xlink:href="#m7d8c778c8e" x="44.738438" y="66.890845" style="stroke: #000000; stroke-width: 0.8"/>
      </g>
     </g>
     <g id="line2d_22">
      <g>
       <use xlink:href="#mebde15541e" x="218.315091" y="66.890845" style="stroke: #000000; stroke-width: 0.8"/>
      </g>
     </g>
     <g id="text_12">
      <!-- 1.0 -->
      <g transform="translate(28.738438 70.36272) scale(0.1 -0.1)">
       <use xlink:href="#TimesNewRomanPSMT-31"/>
       <use xlink:href="#TimesNewRomanPSMT-2e" transform="translate(50 0)"/>
       <use xlink:href="#TimesNewRomanPSMT-30" transform="translate(75 0)"/>
      </g>
     </g>
    </g>
    <g id="ytick_6">
     <g id="line2d_23">
      <g>
       <use xlink:href="#m7d8c778c8e" x="44.738438" y="38.78136" style="stroke: #000000; stroke-width: 0.8"/>
      </g>
     </g>
     <g id="line2d_24">
      <g>
       <use xlink:href="#mebde15541e" x="218.315091" y="38.78136" style="stroke: #000000; stroke-width: 0.8"/>
      </g>
     </g>
     <g id="text_13">
      <!-- 1.5 -->
      <g transform="translate(28.738438 42.253235) scale(0.1 -0.1)">
       <use xlink:href="#TimesNewRomanPSMT-31"/>
       <use xlink:href="#TimesNewRomanPSMT-2e" transform="translate(50 0)"/>
       <use xlink:href="#TimesNewRomanPSMT-35" transform="translate(75 0)"/>
      </g>
     </g>
    </g>
    <g id="ytick_7">
     <g id="line2d_25">
      <g>
       <use xlink:href="#m7d8c778c8e" x="44.738438" y="10.671875" style="stroke: #000000; stroke-width: 0.8"/>
      </g>
     </g>
     <g id="line2d_26">
      <g>
       <use xlink:href="#mebde15541e" x="218.315091" y="10.671875" style="stroke: #000000; stroke-width: 0.8"/>
      </g>
     </g>
     <g id="text_14">
      <!-- 2.0 -->
      <g transform="translate(28.738438 14.14375) scale(0.1 -0.1)">
       <use xlink:href="#TimesNewRomanPSMT-32"/>
       <use xlink:href="#TimesNewRomanPSMT-2e" transform="translate(50 0)"/>
       <use xlink:href="#TimesNewRomanPSMT-30" transform="translate(75 0)"/>
      </g>
     </g>
    </g>
    <g id="text_15">
     <!-- Y Axis Label (unit) -->
     <g transform="translate(15.5325 148.628952) rotate(-90) scale(0.12 -0.12)">
      <defs>
       <path id="TimesNewRomanPSMT-59" d="M 3050 4238 
L 4528 4238 
L 4528 4122 
L 4447 4122 
Q 4366 4122 4209 4050 
Q 4053 3978 3925 3843 
Q 3797 3709 3609 3406 
L 2588 1797 
L 2588 734 
Q 2588 344 2675 247 
Q 2794 116 3050 116 
L 3188 116 
L 3188 0 
L 1388 0 
L 1388 116 
L 1538 116 
Q 1806 116 1919 278 
Q 1988 378 1988 734 
L 1988 1738 
L 825 3513 
Q 619 3825 545 3903 
Q 472 3981 241 4091 
Q 178 4122 59 4122 
L 59 4238 
L 1872 4238 
L 1872 4122 
L 1778 4122 
Q 1631 4122 1507 4053 
Q 1384 3984 1384 3847 
Q 1384 3734 1575 3441 
L 2459 2075 
L 3291 3381 
Q 3478 3675 3478 3819 
Q 3478 3906 3433 3975 
Q 3388 4044 3303 4083 
Q 3219 4122 3050 4122 
L 3050 4238 
z
" transform="scale(0.015625)"/>
      </defs>
      <use xlink:href="#TimesNewRomanPSMT-59"/>
      <use xlink:href="#TimesNewRomanPSMT-20" transform="translate(68.466797 0)"/>
      <use xlink:href="#TimesNewRomanPSMT-41" transform="translate(87.966797 0)"/>
      <use xlink:href="#TimesNewRomanPSMT-78" transform="translate(160.183594 0)"/>
      <use xlink:href="#TimesNewRomanPSMT-69" transform="translate(210.183594 0)"/>
      <use xlink:href="#TimesNewRomanPSMT-73" transform="translate(237.966797 0)"/>
      <use xlink:href="#TimesNewRomanPSMT-20" transform="translate(276.882812 0)"/>
      <use xlink:href="#TimesNewRomanPSMT-4c" transform="translate(301.882812 0)"/>
      <use xlink:href="#TimesNewRomanPSMT-61" transform="translate(362.966797 0)"/>
      <use xlink:href="#TimesNewRomanPSMT-62" transform="translate(407.351562 0)"/>
      <use xlink:href="#TimesNewRomanPSMT-65" transform="translate(457.351562 0)"/>
      <use xlink:href="#TimesNewRomanPSMT-6c" transform="translate(501.736328 0)"/>
      <use xlink:href="#TimesNewRomanPSMT-20" transform="translate(529.519531 0)"/>
      <use xlink:href="#TimesNewRomanPSMT-28" transform="translate(554.519531 0)"/>
      <use xlink:href="#TimesNewRomanPSMT-75" transform="translate(587.820312 0)"/>
      <use xlink:href="#TimesNewRomanPSMT-6e" transform="translate(637.820312 0)"/>
      <use xlink:href="#TimesNewRomanPSMT-69" transform="translate(687.820312 0)"/>
      <use xlink:href="#TimesNewRomanPSMT-74" transform="translate(715.603516 0)"/>
      <use xlink:href="#TimesNewRomanPSMT-29" transform="translate(743.386719 0)"/>
     </g>
    </g>
   </g>
   <g id="line2d_27">
    <path d="M 44.738438 123.109816 
L 46.491737 117.440783 
L 48.245037 111.829544 
L 49.998336 106.333299 
L 51.751636 101.00808 
L 53.504935 95.908175 
L 55.258235 91.085573 
L 57.011534 86.589438 
L 58.764834 82.465605 
L 60.518133 78.756114 
L 62.271433 75.498781 
L 64.024732 72.726813 
L 65.778032 70.468467 
L 67.531331 68.746767 
L 69.284631 67.579264 
L 71.03793 66.97786 
L 72.79123 66.948685 
L 74.54453 67.492038 
L 76.297829 68.602379 
L 78.051129 70.268388 
L 79.804428 72.473083 
L 81.557728 75.193987 
L 83.311027 78.403363 
L 85.064327 82.068493 
L 86.817626 86.152013 
L 88.570926 90.612295 
L 90.324225 95.403868 
L 92.077525 100.477886 
L 93.830824 105.782622 
L 95.584124 111.263998 
L 97.337423 116.866135 
L 99.090723 122.531922 
L 100.844022 128.2036 
L 102.597322 133.82335 
L 104.350622 139.333883 
L 106.103921 144.679021 
L 107.857221 149.804276 
L 109.61052 154.657396 
L 111.36382 159.18891 
L 113.117119 163.352619 
L 114.870419 167.106079 
L 116.623718 170.411025 
L 118.377018 173.233765 
L 120.130317 175.545522 
L 121.883617 177.322731 
L 123.636916 178.547273 
L 125.390216 179.206666 
L 127.143515 179.294186 
L 128.896815 178.808943 
L 130.650115 177.755882 
L 132.403414 176.145739 
L 134.156714 173.994928 
L 135.910013 171.325375 
L 137.663313 168.164296 
L 139.416612 164.543914 
L 141.169912 160.501138 
L 142.923211 156.077181 
L 144.676511 151.317143 
L 146.42981 146.269548 
L 148.18311 140.985855 
L 149.936409 135.519927 
L 151.689709 129.927486 
L 153.443008 124.265543 
L 155.196308 118.591817 
L 156.949607 112.964151 
L 158.702907 107.439912 
L 160.456207 102.075419 
L 162.209506 96.925358 
L 163.962806 92.04223 
L 165.716105 87.475818 
L 167.469405 83.272671 
L 169.222704 79.475639 
L 170.976004 76.12343 
L 172.729303 73.250217 
L 174.482603 70.885291 
L 176.235902 69.052762 
L 177.989202 67.77131 
L 179.742501 67.053999 
L 181.495801 66.908142 
L 183.2491 67.335225 
L 185.0024 68.330895 
L 186.755699 69.885001 
L 188.508999 71.981701 
L 190.262299 74.59962 
L 192.015598 77.712069 
L 193.768898 81.28732 
L 195.522197 85.288925 
L 197.275497 89.67609 
L 199.028796 94.40409 
L 200.782096 99.424727 
L 202.535395 104.686819 
L 204.288695 110.136722 
L 206.041994 115.718877 
L 207.795294 121.376378 
L 209.548593 127.05155 
L 211.301893 132.686539 
L 213.055192 138.223899 
L 214.808492 143.607181 
L 216.561792 148.781505 
L 218.315091 153.694122 
" clip-path="url(#p9e44cdb482)" style="fill: none; stroke: #1f77b4; stroke-width: 2; stroke-linecap: square"/>
   </g>
   <g id="line2d_28">
    <path d="M 44.738438 96.157006 
L 46.491737 91.319345 
L 48.245037 86.805769 
L 49.998336 82.662289 
L 51.751636 78.931146 
L 53.504935 75.650377 
L 55.258235 72.853427 
L 57.011534 70.568809 
L 58.764834 68.819813 
L 60.518133 67.62427 
L 62.271433 66.994367 
L 64.024732 66.936525 
L 65.778032 67.451334 
L 67.531331 68.533547 
L 69.284631 70.17213 
L 71.03793 72.35038 
L 72.79123 75.046089 
L 74.54453 78.231779 
L 76.297829 81.874971 
L 78.051129 85.938526 
L 79.804428 90.38102 
L 81.557728 95.157163 
L 83.311027 100.218265 
L 85.064327 105.512732 
L 86.817626 110.986591 
L 88.570926 116.584038 
L 90.324225 122.248011 
L 92.077525 127.92077 
L 93.830824 133.544484 
L 95.584124 139.061823 
L 97.337423 144.416542 
L 99.090723 149.554052 
L 100.844022 154.42198 
L 102.597322 158.9707 
L 104.350622 163.153841 
L 106.103921 166.928758 
L 107.857221 170.256969 
L 109.61052 173.104545 
L 111.36382 175.442456 
L 113.117119 177.246868 
L 114.870419 178.499388 
L 116.623718 179.187246 
L 118.377018 179.30343 
L 120.130317 178.846755 
L 121.883617 177.821878 
L 123.636916 176.239246 
L 125.390216 174.114992 
L 127.143515 171.470774 
L 128.896815 168.333545 
L 130.650115 164.73529 
L 132.403414 160.712689 
L 134.156714 156.30675 
L 135.910013 151.56239 
L 137.663313 146.527974 
L 139.416612 141.254824 
L 141.169912 135.796697 
L 142.923211 130.209236 
L 144.676511 124.549401 
L 146.42981 118.87489 
L 148.18311 113.243551 
L 149.936409 107.712793 
L 151.689709 102.338997 
L 153.443008 97.176947 
L 155.196308 92.279266 
L 156.949607 87.695884 
L 158.702907 83.473523 
L 160.456207 79.65523 
L 162.209506 76.279929 
L 163.962806 73.382029 
L 165.716105 70.991072 
L 167.469405 69.131433 
L 169.222704 67.82207 
L 170.976004 67.07633 
L 172.729303 66.901816 
L 174.482603 67.300307 
L 176.235902 68.267741 
L 177.989202 69.794255 
L 179.742501 71.864288 
L 181.495801 74.456736 
L 183.2491 77.545172 
L 185.0024 81.09811 
L 186.755699 85.079332 
L 188.508999 89.44825 
L 190.262299 94.160326 
L 192.015598 99.167525 
L 193.768898 104.4188 
L 195.522197 109.860617 
L 197.275497 115.437503 
L 199.028796 121.092602 
L 200.782096 126.768266 
L 202.535395 132.406634 
L 204.288695 137.950227 
L 206.041994 143.342531 
L 207.795294 148.528576 
L 209.548593 153.455492 
L 211.301893 158.073054 
L 213.055192 162.334187 
L 214.808492 166.195452 
L 216.561792 169.617487 
L 218.315091 172.565405 
" clip-path="url(#p9e44cdb482)" style="fill: none; stroke-dasharray: 7.4,3.2; stroke-dashoffset: 0; stroke: #ff7f0e; stroke-width: 2"/>
   </g>
   <g id="line2d_29">
    <path d="M 44.738438 75.803183 
L 46.491737 72.981323 
L 48.245037 70.670491 
L 49.998336 68.894244 
L 51.751636 67.670691 
L 53.504935 67.012305 
L 55.258235 66.925798 
L 57.011534 67.412051 
L 58.764834 68.466108 
L 60.518133 70.077222 
L 62.271433 72.228971 
L 64.024732 74.899418 
L 65.778032 78.061339 
L 67.531331 81.682501 
L 69.284631 85.725988 
L 71.03793 90.15058 
L 72.79123 94.91117 
L 74.54453 99.959228 
L 76.297829 105.243291 
L 78.051129 110.709493 
L 79.804428 116.302107 
L 81.557728 121.964122 
L 83.311027 127.637817 
L 85.064327 133.265352 
L 86.817626 138.789357 
L 88.570926 144.153519 
L 90.324225 149.303154 
L 92.077525 154.185764 
L 93.830824 158.751575 
L 95.584124 162.954041 
L 97.337423 166.75032 
L 99.090723 170.101711 
L 100.844022 172.97405 
L 102.597322 175.338054 
L 104.350622 177.169625 
L 106.103921 178.45009 
L 107.857221 179.166396 
L 109.61052 179.31124 
L 111.36382 178.883146 
L 113.117119 177.886479 
L 114.870419 176.331398 
L 116.623718 174.233756 
L 118.377018 171.614939 
L 120.130317 168.501642 
L 121.883617 164.925604 
L 123.636916 160.923281 
L 125.390216 156.535473 
L 127.143515 151.806912 
L 128.896815 146.785802 
L 130.650115 141.52333 
L 132.403414 136.073144 
L 134.156714 130.490806 
L 135.910013 124.833222 
L 137.663313 119.15807 
L 139.416612 113.523203 
L 141.169912 107.986066 
L 142.923211 102.603106 
L 144.676511 97.429198 
L 146.42981 92.517089 
L 148.18311 87.916853 
L 149.936409 83.675387 
L 151.689709 79.83593 
L 153.443008 76.437623 
L 155.196308 73.515109 
L 156.949607 71.098182 
L 158.702907 69.211481 
L 160.456207 67.87424 
L 162.209506 67.10009 
L 163.962806 66.896924 
L 165.716105 67.266813 
L 167.469405 68.205986 
L 169.222704 69.704869 
L 170.976004 71.748181 
L 172.729303 74.315093 
L 174.482603 77.379437 
L 176.235902 80.909972 
L 177.989202 84.870709 
L 179.742501 89.221269 
L 181.495801 93.917301 
L 183.2491 98.910933 
L 185.0024 104.151257 
L 186.755699 109.584851 
L 188.508999 115.156324 
L 190.262299 120.808878 
L 192.015598 126.484888 
L 193.768898 132.126492 
L 195.522197 137.676176 
L 197.275497 143.077365 
L 199.028796 148.274998 
L 200.782096 153.216088 
L 202.535395 157.850263 
L 204.288695 162.130282 
L 206.041994 166.012511 
L 207.795294 169.457375 
L 209.548593 172.429754 
L 211.301893 174.899348 
L 213.055192 176.84098 
L 214.808492 178.234857 
L 216.561792 179.066769 
L 218.315091 179.328235 
" clip-path="url(#p9e44cdb482)" style="fill: none; stroke-dasharray: 12.8,3.2,2,3.2; stroke-dashoffset: 0; stroke: #2ca02c; stroke-width: 2"/>
   </g>
   <g id="line2d_30">
    <path d="M 44.738438 67.031675 
L 46.491737 66.916504 
L 48.245037 67.374188 
L 49.998336 68.400062 
L 51.751636 69.983668 
L 53.504935 72.10886 
L 55.258235 74.753976 
L 57.011534 77.892048 
L 58.764834 81.491088 
L 60.518133 85.514403 
L 62.271433 89.920981 
L 64.024732 94.665897 
L 65.778032 99.700782 
L 67.531331 104.974306 
L 69.284631 110.432711 
L 71.03793 116.020351 
L 72.79123 121.680263 
L 74.54453 127.354749 
L 76.297829 132.98596 
L 78.051129 138.51649 
L 79.804428 143.889959 
L 81.557728 149.051588 
L 83.311027 153.948756 
L 85.064327 158.531542 
L 86.817626 162.753224 
L 88.570926 166.570768 
L 90.324225 169.945254 
L 92.077525 172.842283 
L 93.830824 175.232321 
L 95.584124 177.091002 
L 97.337423 178.39938 
L 99.090723 179.144115 
L 100.844022 179.317616 
L 102.597322 178.918114 
L 104.350622 177.949682 
L 106.103921 176.422192 
L 107.857221 174.351216 
L 109.61052 171.757866 
L 111.36382 168.66858 
L 113.117119 165.114851 
L 114.870419 161.132908 
L 116.623718 156.763343 
L 118.377018 152.050701 
L 120.130317 147.043026 
L 121.883617 141.791367 
L 123.636916 136.349261 
L 125.390216 130.772187 
L 127.143515 125.117 
L 128.896815 119.441351 
L 130.650115 113.8031 
L 132.403414 108.259725 
L 134.156714 102.867737 
L 135.910013 97.682105 
L 137.663313 92.755691 
L 139.416612 88.138719 
L 141.169912 83.878256 
L 142.923211 80.017733 
L 144.676511 76.596507 
L 146.42981 73.649454 
L 148.18311 71.206619 
L 149.936409 69.292904 
L 151.689709 67.927818 
L 153.443008 67.125278 
L 155.196308 66.893465 
L 156.949607 67.234743 
L 158.702907 68.145631 
L 160.456207 69.616844 
L 162.209506 71.633385 
L 163.962806 74.174695 
L 165.716105 77.214868 
L 167.469405 80.722911 
L 169.222704 84.663061 
L 170.976004 88.995152 
L 172.729303 93.67502 
L 174.482603 98.654958 
L 176.235902 103.884197 
L 177.989202 109.30943 
L 179.742501 114.875348 
L 181.495801 120.525212 
L 183.2491 126.201424 
L 185.0024 131.846119 
L 186.755699 137.401753 
L 188.508999 142.81169 
L 190.262299 148.020779 
L 192.015598 152.975916 
L 193.768898 157.626587 
L 195.522197 161.925381 
L 197.275497 165.828476 
L 199.028796 169.29608 
L 200.782096 172.292845 
L 202.535395 174.788219 
L 204.288695 176.756766 
L 206.041994 178.178415 
L 207.795294 179.038675 
L 209.548593 179.328775 
L 211.301893 179.045759 
L 213.055192 178.192511 
L 214.808492 176.777729 
L 216.561792 174.815837 
L 218.315091 172.326835 
" clip-path="url(#p9e44cdb482)" style="fill: none; stroke-dasharray: 2,3.3; stroke-dashoffset: 0; stroke: #d62728; stroke-width: 2"/>
   </g>
   <g id="line2d_31">
    <path d="M 44.738438 71.990051 
L 46.491737 74.609767 
L 48.245037 77.723911 
L 49.998336 81.300736 
L 51.751636 85.303778 
L 53.504935 89.692228 
L 55.258235 94.42135 
L 57.011534 99.442932 
L 58.764834 104.705784 
L 60.518133 110.156252 
L 62.271433 115.738775 
L 64.024732 121.39644 
L 65.778032 127.071572 
L 67.531331 132.706317 
L 69.284631 138.243231 
L 71.03793 143.62587 
L 72.79123 148.79936 
L 74.54453 153.710962 
L 76.297829 158.310604 
L 78.051129 162.551397 
L 79.804428 166.390107 
L 81.557728 169.787603 
L 83.311027 172.709248 
L 85.064327 175.125258 
L 86.817626 177.011003 
L 88.570926 178.34726 
L 90.324225 179.120406 
L 92.077525 179.322559 
L 93.830824 178.951659 
L 95.584124 178.011487 
L 97.337423 176.511627 
L 99.090723 174.467369 
L 100.844022 171.899553 
L 102.597322 168.834357 
L 104.350622 165.303027 
L 106.103921 161.341565 
L 107.857221 156.990354 
L 109.61052 152.293753 
L 111.36382 147.29964 
L 113.117119 142.058926 
L 114.870419 136.625039 
L 116.623718 131.053372 
L 118.377018 125.400726 
L 120.130317 119.724726 
L 121.883617 114.083234 
L 123.636916 108.533763 
L 125.390216 103.132885 
L 127.143515 97.935659 
L 128.896815 92.995068 
L 130.650115 88.361478 
L 132.403414 84.082125 
L 134.156714 80.200635 
L 135.910013 76.756577 
L 137.663313 73.785061 
L 139.416612 71.31638 
L 141.169912 69.3757 
L 142.923211 67.982805 
L 144.676511 67.151895 
L 146.42981 66.891441 
L 148.18311 67.204098 
L 149.936409 68.086678 
L 151.689709 69.530185 
L 153.443008 71.519902 
L 155.196308 74.035545 
L 156.949607 77.05147 
L 158.702907 80.53693 
L 160.456207 84.456394 
L 162.209506 88.769906 
L 163.962806 93.433491 
L 165.716105 98.399607 
L 167.469405 103.617628 
L 169.222704 109.03436 
L 170.976004 114.594582 
L 172.729303 120.241612 
L 174.482603 125.917881 
L 176.235902 131.565524 
L 177.989202 137.126966 
L 179.742501 142.545512 
L 181.495801 147.765924 
L 183.2491 152.734982 
L 185.0024 157.40203 
L 186.755699 161.719491 
L 188.508999 165.64335 
L 190.262299 169.133607 
L 192.015598 172.154681 
L 193.768898 174.675773 
L 195.522197 176.671183 
L 197.275497 178.120568 
L 199.028796 179.009153 
L 200.782096 179.327881 
L 202.535395 179.0735 
L 204.288695 178.248605 
L 206.041994 176.861605 
L 207.795294 174.926639 
L 209.548593 172.463434 
L 211.301893 169.4971 
L 213.055192 166.057876 
L 214.808492 162.180824 
L 216.561792 157.905468 
L 218.315091 153.275393 
" clip-path="url(#p9e44cdb482)" style="fill: none; stroke-dasharray: 6,2,2,2; stroke-dashoffset: 0; stroke: #9467bd; stroke-width: 2"/>
   </g>
   <g id="line2d_32">
    <path d="M 44.738438 89.464328 
L 46.491737 94.177534 
L 48.245037 99.185687 
L 49.998336 104.43773 
L 51.751636 109.880124 
L 53.504935 115.457387 
L 55.258235 121.112661 
L 57.011534 126.788295 
L 58.764834 132.426429 
L 60.518133 137.969586 
L 62.271433 143.361257 
L 64.024732 148.546477 
L 65.778032 153.472387 
L 67.531331 158.088769 
L 69.284631 162.348563 
L 71.03793 166.208343 
L 72.79123 169.628761 
L 74.54453 172.574947 
L 76.297829 175.016868 
L 78.051129 176.929629 
L 79.804428 178.293731 
L 81.557728 179.095267 
L 83.311027 179.326068 
L 85.064327 178.983779 
L 86.817626 178.071891 
L 88.570926 176.599699 
L 90.324225 174.582211 
L 92.077525 172.039995 
L 93.830824 168.998967 
L 95.584124 165.490127 
L 97.337423 161.549247 
L 99.090723 157.216502 
L 100.844022 152.53606 
L 102.597322 147.555636 
L 104.350622 142.326003 
L 106.103921 136.900473 
L 107.857221 131.334355 
L 109.61052 125.684394 
L 111.36382 120.008187 
L 113.117119 114.363598 
L 114.870419 108.808172 
L 116.623718 103.398542 
L 118.377018 98.189856 
L 120.130317 93.235213 
L 121.883617 88.585123 
L 123.636916 84.286991 
L 125.390216 80.384632 
L 127.143515 76.91783 
L 128.896815 73.921926 
L 130.650115 71.427461 
L 132.403414 69.459866 
L 134.156714 68.039197 
L 135.910013 67.179939 
L 137.663313 66.890851 
L 139.416612 67.174879 
L 141.169912 68.029129 
L 142.923211 69.444892 
L 144.676511 71.407734 
L 146.42981 73.897647 
L 148.18311 76.889247 
L 149.936409 80.352036 
L 151.689709 84.250713 
L 153.443008 88.545535 
L 155.196308 93.192718 
L 156.949607 98.144886 
L 158.702907 103.351557 
L 160.456207 108.75965 
L 162.209506 114.314034 
L 163.962806 119.958085 
L 165.716105 125.634267 
L 167.469405 131.284713 
L 169.222704 136.851822 
L 170.976004 142.278839 
L 172.729303 147.51044 
L 174.482603 152.493292 
L 176.235902 157.176599 
L 177.989202 161.512616 
L 179.742501 165.45714 
L 181.495801 168.969961 
L 183.2491 172.015266 
L 185.0024 174.562011 
L 186.755699 176.584233 
L 188.508999 178.061318 
L 190.262299 178.978206 
L 192.015598 179.325552 
L 193.768898 179.099814 
L 195.522197 178.303293 
L 197.275497 176.94411 
L 199.028796 175.036119 
L 200.782096 172.598774 
L 202.535395 169.656919 
L 204.288695 166.240546 
L 206.041994 162.384482 
L 207.795294 158.128038 
L 209.548593 153.514606 
L 211.301893 148.591216 
L 213.055192 143.408059 
L 214.808492 138.017974 
L 216.561792 132.47591 
L 218.315091 126.838364 
" clip-path="url(#p9e44cdb482)" style="fill: none; stroke-dasharray: 10,10; stroke-dashoffset: 0; stroke: #8c564b; stroke-width: 2"/>
   </g>
   <g id="patch_3">
    <path d="M 44.738438 193.383529 
L 44.738438 10.671875 
" style="fill: none; stroke: #000000; stroke-width: 1.5; stroke-linejoin: miter; stroke-linecap: square"/>
   </g>
   <g id="patch_4">
    <path d="M 218.315091 193.383529 
L 218.315091 10.671875 
" style="fill: none; stroke: #000000; stroke-width: 1.5; stroke-linejoin: miter; stroke-linecap: square"/>
   </g>
   <g id="patch_5">
    <path d="M 44.738438 193.383529 
L 218.315091 193.383529 
" style="fill: none; stroke: #000000; stroke-width: 1.5; stroke-linejoin: miter; stroke-linecap: square"/>
   </g>
   <g id="patch_6">
    <path d="M 44.738438 10.671875 
L 218.315091 10.671875 
" style="fill: none; stroke: #000000; stroke-width: 1.5; stroke-linejoin: miter; stroke-linecap: square"/>
   </g>
   <g id="legend_1">
    <g id="line2d_33">
     <path d="M 47.709577 23.171875 
L 57.709577 23.171875 
L 67.709577 23.171875 
" style="fill: none; stroke: #1f77b4; stroke-width: 2; stroke-linecap: square"/>
    </g>
    <g id="text_16">
     <!-- Data Series 1 -->
     <g transform="translate(75.709577 26.671875) scale(0.1 -0.1)">
      <defs>
       <path id="TimesNewRomanPSMT-44" d="M 109 0 
L 109 116 
L 269 116 
Q 538 116 650 288 
Q 719 391 719 750 
L 719 3488 
Q 719 3884 631 3984 
Q 509 4122 269 4122 
L 109 4122 
L 109 4238 
L 1834 4238 
Q 2784 4238 3279 4022 
Q 3775 3806 4076 3303 
Q 4378 2800 4378 2141 
Q 4378 1256 3841 663 
Q 3238 0 2003 0 
L 109 0 
z
M 1319 306 
Q 1716 219 1984 219 
Q 2709 219 3187 728 
Q 3666 1238 3666 2109 
Q 3666 2988 3187 3494 
Q 2709 4000 1959 4000 
Q 1678 4000 1319 3909 
L 1319 306 
z
" transform="scale(0.015625)"/>
       <path id="TimesNewRomanPSMT-53" d="M 2934 4334 
L 2934 2869 
L 2819 2869 
Q 2763 3291 2617 3541 
Q 2472 3791 2203 3937 
Q 1934 4084 1647 4084 
Q 1322 4084 1109 3886 
Q 897 3688 897 3434 
Q 897 3241 1031 3081 
Q 1225 2847 1953 2456 
Q 2547 2138 2764 1967 
Q 2981 1797 3098 1565 
Q 3216 1334 3216 1081 
Q 3216 600 2842 251 
Q 2469 -97 1881 -97 
Q 1697 -97 1534 -69 
Q 1438 -53 1133 45 
Q 828 144 747 144 
Q 669 144 623 97 
Q 578 50 556 -97 
L 441 -97 
L 441 1356 
L 556 1356 
Q 638 900 775 673 
Q 913 447 1195 297 
Q 1478 147 1816 147 
Q 2206 147 2432 353 
Q 2659 559 2659 841 
Q 2659 997 2573 1156 
Q 2488 1316 2306 1453 
Q 2184 1547 1640 1851 
Q 1097 2156 867 2337 
Q 638 2519 519 2737 
Q 400 2956 400 3219 
Q 400 3675 750 4004 
Q 1100 4334 1641 4334 
Q 1978 4334 2356 4169 
Q 2531 4091 2603 4091 
Q 2684 4091 2736 4139 
Q 2788 4188 2819 4334 
L 2934 4334 
z
" transform="scale(0.015625)"/>
       <path id="TimesNewRomanPSMT-72" d="M 1038 2947 
L 1038 2303 
Q 1397 2947 1775 2947 
Q 1947 2947 2059 2842 
Q 2172 2738 2172 2600 
Q 2172 2478 2090 2393 
Q 2009 2309 1897 2309 
Q 1788 2309 1652 2417 
Q 1516 2525 1450 2525 
Q 1394 2525 1328 2463 
Q 1188 2334 1038 2041 
L 1038 669 
Q 1038 431 1097 309 
Q 1138 225 1241 169 
Q 1344 113 1538 113 
L 1538 0 
L 72 0 
L 72 113 
Q 291 113 397 181 
Q 475 231 506 341 
Q 522 394 522 644 
L 522 1753 
Q 522 2253 501 2348 
Q 481 2444 426 2487 
Q 372 2531 291 2531 
Q 194 2531 72 2484 
L 41 2597 
L 906 2947 
L 1038 2947 
z
" transform="scale(0.015625)"/>
      </defs>
      <use xlink:href="#TimesNewRomanPSMT-44"/>
      <use xlink:href="#TimesNewRomanPSMT-61" transform="translate(72.216797 0)"/>
      <use xlink:href="#TimesNewRomanPSMT-74" transform="translate(116.601562 0)"/>
      <use xlink:href="#TimesNewRomanPSMT-61" transform="translate(144.384766 0)"/>
      <use xlink:href="#TimesNewRomanPSMT-20" transform="translate(188.769531 0)"/>
      <use xlink:href="#TimesNewRomanPSMT-53" transform="translate(213.769531 0)"/>
      <use xlink:href="#TimesNewRomanPSMT-65" transform="translate(269.384766 0)"/>
      <use xlink:href="#TimesNewRomanPSMT-72" transform="translate(313.769531 0)"/>
      <use xlink:href="#TimesNewRomanPSMT-69" transform="translate(347.070312 0)"/>
      <use xlink:href="#TimesNewRomanPSMT-65" transform="translate(374.853516 0)"/>
      <use xlink:href="#TimesNewRomanPSMT-73" transform="translate(419.238281 0)"/>
      <use xlink:href="#TimesNewRomanPSMT-20" transform="translate(458.154297 0)"/>
      <use xlink:href="#TimesNewRomanPSMT-31" transform="translate(483.154297 0)"/>
     </g>
    </g>
    <g id="line2d_34">
     <path d="M 47.709577 37.310937 
L 57.709577 37.310937 
L 67.709577 37.310937 
" style="fill: none; stroke-dasharray: 7.4,3.2; stroke-dashoffset: 0; stroke: #ff7f0e; stroke-width: 2"/>
    </g>
    <g id="text_17">
     <!-- Data Series 2 -->
     <g transform="translate(75.709577 40.810937) scale(0.1 -0.1)">
      <use xlink:href="#TimesNewRomanPSMT-44"/>
      <use xlink:href="#TimesNewRomanPSMT-61" transform="translate(72.216797 0)"/>
      <use xlink:href="#TimesNewRomanPSMT-74" transform="translate(116.601562 0)"/>
      <use xlink:href="#TimesNewRomanPSMT-61" transform="translate(144.384766 0)"/>
      <use xlink:href="#TimesNewRomanPSMT-20" transform="translate(188.769531 0)"/>
      <use xlink:href="#TimesNewRomanPSMT-53" transform="translate(213.769531 0)"/>
      <use xlink:href="#TimesNewRomanPSMT-65" transform="translate(269.384766 0)"/>
      <use xlink:href="#TimesNewRomanPSMT-72" transform="translate(313.769531 0)"/>
      <use xlink:href="#TimesNewRomanPSMT-69" transform="translate(347.070312 0)"/>
      <use xlink:href="#TimesNewRomanPSMT-65" transform="translate(374.853516 0)"/>
      <use xlink:href="#TimesNewRomanPSMT-73" transform="translate(419.238281 0)"/>
      <use xlink:href="#TimesNewRomanPSMT-20" transform="translate(458.154297 0)"/>
      <use xlink:href="#TimesNewRomanPSMT-32" transform="translate(483.154297 0)"/>
     </g>
    </g>
    <g id="line2d_35">
     <path d="M 47.709577 51.45 
L 57.709577 51.45 
L 67.709577 51.45 
" style="fill: none; stroke-dasharray: 12.8,3.2,2,3.2; stroke-dashoffset: 0; stroke: #2ca02c; stroke-width: 2"/>
    </g>
    <g id="text_18">
     <!-- Data Series 3 -->
     <g transform="translate(75.709577 54.95) scale(0.1 -0.1)">
      <defs>
       <path id="TimesNewRomanPSMT-33" d="M 325 3431 
Q 506 3859 782 4092 
Q 1059 4325 1472 4325 
Q 1981 4325 2253 3994 
Q 2459 3747 2459 3466 
Q 2459 3003 1878 2509 
Q 2269 2356 2469 2072 
Q 2669 1788 2669 1403 
Q 2669 853 2319 450 
Q 1863 -75 997 -75 
Q 569 -75 414 31 
Q 259 138 259 259 
Q 259 350 332 419 
Q 406 488 509 488 
Q 588 488 669 463 
Q 722 447 909 348 
Q 1097 250 1169 231 
Q 1284 197 1416 197 
Q 1734 197 1970 444 
Q 2206 691 2206 1028 
Q 2206 1275 2097 1509 
Q 2016 1684 1919 1775 
Q 1784 1900 1550 2001 
Q 1316 2103 1072 2103 
L 972 2103 
L 972 2197 
Q 1219 2228 1467 2375 
Q 1716 2522 1828 2728 
Q 1941 2934 1941 3181 
Q 1941 3503 1739 3701 
Q 1538 3900 1238 3900 
Q 753 3900 428 3381 
L 325 3431 
z
" transform="scale(0.015625)"/>
      </defs>
      <use xlink:href="#TimesNewRomanPSMT-44"/>
      <use xlink:href="#TimesNewRomanPSMT-61" transform="translate(72.216797 0)"/>
      <use xlink:href="#TimesNewRomanPSMT-74" transform="translate(116.601562 0)"/>
      <use xlink:href="#TimesNewRomanPSMT-61" transform="translate(144.384766 0)"/>
      <use xlink:href="#TimesNewRomanPSMT-20" transform="translate(188.769531 0)"/>
      <use xlink:href="#TimesNewRomanPSMT-53" transform="translate(213.769531 0)"/>
      <use xlink:href="#TimesNewRomanPSMT-65" transform="translate(269.384766 0)"/>
      <use xlink:href="#TimesNewRomanPSMT-72" transform="translate(313.769531 0)"/>
      <use xlink:href="#TimesNewRomanPSMT-69" transform="translate(347.070312 0)"/>
      <use xlink:href="#TimesNewRomanPSMT-65" transform="translate(374.853516 0)"/>
      <use xlink:href="#TimesNewRomanPSMT-73" transform="translate(419.238281 0)"/>
      <use xlink:href="#TimesNewRomanPSMT-20" transform="translate(458.154297 0)"/>
      <use xlink:href="#TimesNewRomanPSMT-33" transform="translate(483.154297 0)"/>
     </g>
    </g>
    <g id="line2d_36">
     <path d="M 134.026764 23.171875 
L 144.026764 23.171875 
L 154.026764 23.171875 
" style="fill: none; stroke-dasharray: 2,3.3; stroke-dashoffset: 0; stroke: #d62728; stroke-width: 2"/>
    </g>
    <g id="text_19">
     <!-- Data Series 4 -->
     <g transform="translate(162.026764 26.671875) scale(0.1 -0.1)">
      <use xlink:href="#TimesNewRomanPSMT-44"/>
      <use xlink:href="#TimesNewRomanPSMT-61" transform="translate(72.216797 0)"/>
      <use xlink:href="#TimesNewRomanPSMT-74" transform="translate(116.601562 0)"/>
      <use xlink:href="#TimesNewRomanPSMT-61" transform="translate(144.384766 0)"/>
      <use xlink:href="#TimesNewRomanPSMT-20" transform="translate(188.769531 0)"/>
      <use xlink:href="#TimesNewRomanPSMT-53" transform="translate(213.769531 0)"/>
      <use xlink:href="#TimesNewRomanPSMT-65" transform="translate(269.384766 0)"/>
      <use xlink:href="#TimesNewRomanPSMT-72" transform="translate(313.769531 0)"/>
      <use xlink:href="#TimesNewRomanPSMT-69" transform="translate(347.070312 0)"/>
      <use xlink:href="#TimesNewRomanPSMT-65" transform="translate(374.853516 0)"/>
      <use xlink:href="#TimesNewRomanPSMT-73" transform="translate(419.238281 0)"/>
      <use xlink:href="#TimesNewRomanPSMT-20" transform="translate(458.154297 0)"/>
      <use xlink:href="#TimesNewRomanPSMT-34" transform="translate(483.154297 0)"/>
     </g>
    </g>
    <g id="line2d_37">
     <path d="M 134.026764 37.310937 
L 144.026764 37.310937 
L 154.026764 37.310937 
" style="fill: none; stroke-dasharray: 6,2,2,2; stroke-dashoffset: 0; stroke: #9467bd; stroke-width: 2"/>
    </g>
    <g id="text_20">
     <!-- Data Series 5 -->
     <g transform="translate(162.026764 40.810937) scale(0.1 -0.1)">
      <use xlink:href="#TimesNewRomanPSMT-44"/>
      <use xlink:href="#TimesNewRomanPSMT-61" transform="translate(72.216797 0)"/>
      <use xlink:href="#TimesNewRomanPSMT-74" transform="translate(116.601562 0)"/>
      <use xlink:href="#TimesNewRomanPSMT-61" transform="translate(144.384766 0)"/>
      <use xlink:href="#TimesNewRomanPSMT-20" transform="translate(188.769531 0)"/>
      <use xlink:href="#TimesNewRomanPSMT-53" transform="translate(213.769531 0)"/>
      <use xlink:href="#TimesNewRomanPSMT-65" transform="translate(269.384766 0)"/>
      <use xlink:href="#TimesNewRomanPSMT-72" transform="translate(313.769531 0)"/>
      <use xlink:href="#TimesNewRomanPSMT-69" transform="translate(347.070312 0)"/>
      <use xlink:href="#TimesNewRomanPSMT-65" transform="translate(374.853516 0)"/>
      <use xlink:href="#TimesNewRomanPSMT-73" transform="translate(419.238281 0)"/>
      <use xlink:href="#TimesNewRomanPSMT-20" transform="translate(458.154297 0)"/>
      <use xlink:href="#TimesNewRomanPSMT-35" transform="translate(483.154297 0)"/>
     </g>
    </g>
    <g id="line2d_38">
     <path d="M 134.026764 51.45 
L 144.026764 51.45 
L 154.026764 51.45 
" style="fill: none; stroke-dasharray: 10,10; stroke-dashoffset: 0; stroke: #8c564b; stroke-width: 2"/>
    </g>
    <g id="text_21">
     <!-- Data Series 6 -->
     <g transform="translate(162.026764 54.95) scale(0.1 -0.1)">
      <use xlink:href="#TimesNewRomanPSMT-44"/>
      <use xlink:href="#TimesNewRomanPSMT-61" transform="translate(72.216797 0)"/>
      <use xlink:href="#TimesNewRomanPSMT-74" transform="translate(116.601562 0)"/>
      <use xlink:href="#TimesNewRomanPSMT-61" transform="translate(144.384766 0)"/>
      <use xlink:href="#TimesNewRomanPSMT-20" transform="translate(188.769531 0)"/>
      <use xlink:href="#TimesNewRomanPSMT-53" transform="translate(213.769531 0)"/>
      <use xlink:href="#TimesNewRomanPSMT-65" transform="translate(269.384766 0)"/>
      <use xlink:href="#TimesNewRomanPSMT-72" transform="translate(313.769531 0)"/>
      <use xlink:href="#TimesNewRomanPSMT-69" transform="translate(347.070312 0)"/>
      <use xlink:href="#TimesNewRomanPSMT-65" transform="translate(374.853516 0)"/>
      <use xlink:href="#TimesNewRomanPSMT-73" transform="translate(419.238281 0)"/>
      <use xlink:href="#TimesNewRomanPSMT-20" transform="translate(458.154297 0)"/>
      <use xlink:href="#TimesNewRomanPSMT-36" transform="translate(483.154297 0)"/>
     </g>
    </g>
   </g>
  </g>
 </g>
 <defs>
  <clipPath id="p9e44cdb482">
   <rect x="44.738438" y="10.671875" width="173.576654" height="182.711654"/>
  </clipPath>
 </defs>
</svg>
